<?xml version="1.0" encoding="UTF-8" standalone="no"?><svg xmlns="http://www.w3.org/2000/svg" xmlns:xlink="http://www.w3.org/1999/xlink" contentScriptType="application/ecmascript" contentStyleType="text/css" height="491px" preserveAspectRatio="none" style="width:576px;height:491px;" version="1.1" viewBox="0 0 576 491" width="576px" zoomAndPan="magnify"><defs><filter height="300%" id="futbplc" width="300%" x="-1" y="-1"><feGaussianBlur result="blurOut" stdDeviation="2.0"/><feColorMatrix in="blurOut" result="blurOut2" type="matrix" values="0 0 0 0 0 0 0 0 0 0 0 0 0 0 0 0 0 0 .4 0"/><feOffset dx="4.0" dy="4.0" in="blurOut2" result="blurOut3"/><feBlend in="SourceGraphic" in2="blurOut3" mode="normal"/></filter></defs><g><rect fill="#65CFD9" filter="url(#futbplc)" height="29.1328" style="stroke: #35566B; stroke-width: 1.0;" width="10" x="270.5" y="117.2969"/><rect fill="#65CFD9" filter="url(#futbplc)" height="126.5313" style="stroke: #35566B; stroke-width: 1.0;" width="10" x="270.5" y="262.9609"/><rect fill="#65CFD9" filter="url(#futbplc)" height="58.2656" style="stroke: #35566B; stroke-width: 1.0;" width="10" x="487.5" y="175.5625"/><rect fill="#65CFD9" filter="url(#futbplc)" height="29.1328" style="stroke: #35566B; stroke-width: 1.0;" width="10" x="487.5" y="292.0938"/><line style="stroke: #35566B; stroke-width: 1.0; stroke-dasharray: 5.0,5.0;" x1="27" x2="27" y1="86.2969" y2="407.625"/><line style="stroke: #35566B; stroke-width: 1.0; stroke-dasharray: 5.0,5.0;" x1="84" x2="84" y1="86.2969" y2="407.625"/><line style="stroke: #35566B; stroke-width: 1.0; stroke-dasharray: 5.0,5.0;" x1="275" x2="275" y1="86.2969" y2="407.625"/><line style="stroke: #35566B; stroke-width: 1.0; stroke-dasharray: 5.0,5.0;" x1="492" x2="492" y1="86.2969" y2="407.625"/><text fill="#000000" font-family="sans-serif" font-size="14" lengthAdjust="spacingAndGlyphs" textLength="32" x="8" y="82.9951">User</text><ellipse cx="27" cy="13" fill="#FEFECE" filter="url(#futbplc)" rx="8" ry="8" style="stroke: #A80036; stroke-width: 2.0;"/><path d="M27,21 L27,48 M14,29 L40,29 M27,48 L14,63 M27,48 L40,63 " fill="#FEFECE" filter="url(#futbplc)" style="stroke: #A80036; stroke-width: 2.0;"/><text fill="#000000" font-family="sans-serif" font-size="14" lengthAdjust="spacingAndGlyphs" textLength="32" x="8" y="419.6201">User</text><ellipse cx="27" cy="432.9219" fill="#FEFECE" filter="url(#futbplc)" rx="8" ry="8" style="stroke: #A80036; stroke-width: 2.0;"/><path d="M27,440.9219 L27,467.9219 M14,448.9219 L40,448.9219 M27,467.9219 L14,482.9219 M27,467.9219 L40,482.9219 " fill="#FEFECE" filter="url(#futbplc)" style="stroke: #A80036; stroke-width: 2.0;"/><rect fill="#DDDDDD" filter="url(#futbplc)" height="30.2969" style="stroke: #35566B; stroke-width: 1.5;" width="53" x="56" y="51"/><text fill="#000000" font-family="sans-serif" font-size="14" lengthAdjust="spacingAndGlyphs" textLength="39" x="63" y="70.9951">Client</text><rect fill="#DDDDDD" filter="url(#futbplc)" height="30.2969" style="stroke: #35566B; stroke-width: 1.5;" width="53" x="56" y="406.625"/><text fill="#000000" font-family="sans-serif" font-size="14" lengthAdjust="spacingAndGlyphs" textLength="39" x="63" y="426.6201">Client</text><rect fill="#DDDDDD" filter="url(#futbplc)" height="30.2969" style="stroke: #35566B; stroke-width: 1.5;" width="173" x="187" y="51"/><text fill="#000000" font-family="sans-serif" font-size="14" lengthAdjust="spacingAndGlyphs" textLength="159" x="194" y="70.9951">Game On! Auth service</text><rect fill="#DDDDDD" filter="url(#futbplc)" height="30.2969" style="stroke: #35566B; stroke-width: 1.5;" width="173" x="187" y="406.625"/><text fill="#000000" font-family="sans-serif" font-size="14" lengthAdjust="spacingAndGlyphs" textLength="159" x="194" y="426.6201">Game On! Auth service</text><rect fill="#DDDDDD" filter="url(#futbplc)" height="30.2969" style="stroke: #35566B; stroke-width: 1.5;" width="153" x="414" y="51"/><text fill="#000000" font-family="sans-serif" font-size="14" lengthAdjust="spacingAndGlyphs" textLength="139" x="421" y="70.9951">Authorization Server</text><rect fill="#DDDDDD" filter="url(#futbplc)" height="30.2969" style="stroke: #35566B; stroke-width: 1.5;" width="153" x="414" y="406.625"/><text fill="#000000" font-family="sans-serif" font-size="14" lengthAdjust="spacingAndGlyphs" textLength="139" x="421" y="426.6201">Authorization Server</text><rect fill="#65CFD9" filter="url(#futbplc)" height="29.1328" style="stroke: #35566B; stroke-width: 1.0;" width="10" x="270.5" y="117.2969"/><rect fill="#65CFD9" filter="url(#futbplc)" height="126.5313" style="stroke: #35566B; stroke-width: 1.0;" width="10" x="270.5" y="262.9609"/><rect fill="#65CFD9" filter="url(#futbplc)" height="58.2656" style="stroke: #35566B; stroke-width: 1.0;" width="10" x="487.5" y="175.5625"/><rect fill="#65CFD9" filter="url(#futbplc)" height="29.1328" style="stroke: #35566B; stroke-width: 1.0;" width="10" x="487.5" y="292.0938"/><polygon fill="#0FA0CE" points="258.5,113.2969,268.5,117.2969,258.5,121.2969,262.5,117.2969" style="stroke: #0FA0CE; stroke-width: 1.0;"/><line style="stroke: #0FA0CE; stroke-width: 1.0;" x1="84.5" x2="264.5" y1="117.2969" y2="117.2969"/><text fill="#000000" font-family="sans-serif" font-size="13" lengthAdjust="spacingAndGlyphs" textLength="136" x="91.5" y="112.3638">REST request to login</text><line style="stroke: #0FA0CE; stroke-width: 1.0;" x1="84.5" x2="94.5" y1="146.4297" y2="142.4297"/><line style="stroke: #0FA0CE; stroke-width: 1.0;" x1="84.5" x2="94.5" y1="146.4297" y2="150.4297"/><line style="stroke: #0FA0CE; stroke-width: 1.0; stroke-dasharray: 2.0,2.0;" x1="84.5" x2="274.5" y1="146.4297" y2="146.4297"/><text fill="#000000" font-family="sans-serif" font-size="13" lengthAdjust="spacingAndGlyphs" textLength="162" x="101.5" y="141.4966">Redirect for Authorization</text><polygon fill="#0FA0CE" points="475.5,171.5625,485.5,175.5625,475.5,179.5625,479.5,175.5625" style="stroke: #0FA0CE; stroke-width: 1.0;"/><line style="stroke: #0FA0CE; stroke-width: 1.0;" x1="84.5" x2="481.5" y1="175.5625" y2="175.5625"/><text fill="#000000" font-family="sans-serif" font-size="13" lengthAdjust="spacingAndGlyphs" textLength="178" x="91.5" y="170.6294">Authorization Code Request</text><polygon fill="#0FA0CE" points="475.5,200.6953,485.5,204.6953,475.5,208.6953,479.5,204.6953" style="stroke: #0FA0CE; stroke-width: 1.0;"/><line style="stroke: #0FA0CE; stroke-width: 1.0;" x1="27" x2="481.5" y1="204.6953" y2="204.6953"/><text fill="#000000" font-family="sans-serif" font-size="13" lengthAdjust="spacingAndGlyphs" textLength="270" x="34" y="199.7622">User Authenticates and grants permission</text><line style="stroke: #0FA0CE; stroke-width: 1.0;" x1="84.5" x2="94.5" y1="233.8281" y2="229.8281"/><line style="stroke: #0FA0CE; stroke-width: 1.0;" x1="84.5" x2="94.5" y1="233.8281" y2="237.8281"/><line style="stroke: #0FA0CE; stroke-width: 1.0; stroke-dasharray: 2.0,2.0;" x1="84.5" x2="491.5" y1="233.8281" y2="233.8281"/><text fill="#000000" font-family="sans-serif" font-size="13" lengthAdjust="spacingAndGlyphs" textLength="204" x="101.5" y="228.895">Redirect with authorization code</text><polygon fill="#0FA0CE" points="258.5,258.9609,268.5,262.9609,258.5,266.9609,262.5,262.9609" style="stroke: #0FA0CE; stroke-width: 1.0;"/><line style="stroke: #0FA0CE; stroke-width: 1.0;" x1="84.5" x2="264.5" y1="262.9609" y2="262.9609"/><text fill="#000000" font-family="sans-serif" font-size="13" lengthAdjust="spacingAndGlyphs" textLength="124" x="91.5" y="258.0278">Authorized callback</text><polygon fill="#0FA0CE" points="475.5,288.0938,485.5,292.0938,475.5,296.0938,479.5,292.0938" style="stroke: #0FA0CE; stroke-width: 1.0;"/><line style="stroke: #0FA0CE; stroke-width: 1.0;" x1="280.5" x2="481.5" y1="292.0938" y2="292.0938"/><text fill="#000000" font-family="sans-serif" font-size="13" lengthAdjust="spacingAndGlyphs" textLength="188" x="287.5" y="287.1606">Exchange Authorization Code</text><line style="stroke: #0FA0CE; stroke-width: 1.0;" x1="280.5" x2="290.5" y1="321.2266" y2="317.2266"/><line style="stroke: #0FA0CE; stroke-width: 1.0;" x1="280.5" x2="290.5" y1="321.2266" y2="325.2266"/><line style="stroke: #0FA0CE; stroke-width: 1.0; stroke-dasharray: 2.0,2.0;" x1="280.5" x2="491.5" y1="321.2266" y2="321.2266"/><text fill="#000000" font-family="sans-serif" font-size="13" lengthAdjust="spacingAndGlyphs" textLength="87" x="297.5" y="316.2935">Access Token</text><polygon fill="#FFFFFF" filter="url(#futbplc)" points="130,334.3594,130,359.3594,416,359.3594,416,344.3594,406,334.3594,130,334.3594" style="stroke: #A80036; stroke-width: 1.0;"/><line style="stroke: #A80036; stroke-width: 1.0;" x1="406" x2="406" y1="334.3594" y2="344.3594"/><line style="stroke: #A80036; stroke-width: 1.0;" x1="416" x2="406" y1="344.3594" y2="344.3594"/><text fill="#EA6F56" font-family="sans-serif" font-size="13" lengthAdjust="spacingAndGlyphs" textLength="265" x="136" y="351.4263">Create signed JWT based on access token</text><line style="stroke: #0FA0CE; stroke-width: 1.0;" x1="84.5" x2="94.5" y1="389.4922" y2="385.4922"/><line style="stroke: #0FA0CE; stroke-width: 1.0;" x1="84.5" x2="94.5" y1="389.4922" y2="393.4922"/><line style="stroke: #0FA0CE; stroke-width: 1.0; stroke-dasharray: 2.0,2.0;" x1="84.5" x2="274.5" y1="389.4922" y2="389.4922"/><text fill="#000000" font-family="sans-serif" font-size="13" lengthAdjust="spacingAndGlyphs" textLength="64" x="101.5" y="384.5591">return JWT</text></g></svg>