<?xml version="1.0" encoding="UTF-8" standalone="yes"?><svg xmlns="http://www.w3.org/2000/svg" xmlns:xlink="http://www.w3.org/1999/xlink" height="1661px" style="width:750px;height:1661px;" version="1.1" viewBox="0 0 750 1661" width="750px"><defs><filter height="300%" id="f1" width="300%" x="-1" y="-1"><feGaussianBlur result="blurOut" stdDeviation="2.0"/><feColorMatrix in="blurOut" result="blurOut2" type="matrix" values="0 0 0 0 0 0 0 0 0 0 0 0 0 0 0 0 0 0 .4 0"/><feOffset dx="4.0" dy="4.0" in="blurOut2" result="blurOut3"/><feBlend in="SourceGraphic" in2="blurOut3" mode="normal"/></filter></defs><g><rect fill="#65CFD9" filter="url(#f1)" height="1487.375" style="stroke: #35566B; stroke-width: 1.0;" width="10" x="311.5" y="112.4297"/><rect fill="#65CFD9" filter="url(#f1)" height="618.6563" style="stroke: #35566B; stroke-width: 1.0;" width="10" x="596.5" y="268.0938"/><rect fill="#65CFD9" filter="url(#f1)" height="281.1953" style="stroke: #35566B; stroke-width: 1.0;" width="10" x="596.5" y="1318.6094"/><rect fill="#65CFD9" filter="url(#f1)" height="315.3281" style="stroke: #35566B; stroke-width: 1.0;" width="10" x="689" y="945.0156"/><line style="stroke: #35566B; stroke-width: 1.0; stroke-dasharray: 5.0,5.0;" x1="36" x2="36" y1="38.2969" y2="1622.9375"/><line style="stroke: #35566B; stroke-width: 1.0; stroke-dasharray: 5.0,5.0;" x1="316.5" x2="316.5" y1="38.2969" y2="1622.9375"/><line style="stroke: #35566B; stroke-width: 1.0; stroke-dasharray: 5.0,5.0;" x1="601" x2="601" y1="38.2969" y2="1622.9375"/><line style="stroke: #35566B; stroke-width: 1.0; stroke-dasharray: 5.0,5.0;" x1="694" x2="694" y1="38.2969" y2="1622.9375"/><rect fill="#DDDDDD" filter="url(#f1)" height="30.2969" style="stroke: #35566B; stroke-width: 1.5;" width="53" x="8" y="3"/><text fill="#000000" font-family="sans-serif" font-size="14" lengthAdjust="spacingAndGlyphs" textLength="39" x="15" y="22.9951">Client</text><rect fill="#DDDDDD" filter="url(#f1)" height="30.2969" style="stroke: #35566B; stroke-width: 1.5;" width="53" x="8" y="1621.9375"/><text fill="#000000" font-family="sans-serif" font-size="14" lengthAdjust="spacingAndGlyphs" textLength="39" x="15" y="1641.9326">Client</text><rect fill="#DDDDDD" filter="url(#f1)" height="30.2969" style="stroke: #35566B; stroke-width: 1.5;" width="74" x="277.5" y="3"/><text fill="#000000" font-family="sans-serif" font-size="14" lengthAdjust="spacingAndGlyphs" textLength="60" x="284.5" y="22.9951">Mediator</text><rect fill="#DDDDDD" filter="url(#f1)" height="30.2969" style="stroke: #35566B; stroke-width: 1.5;" width="74" x="277.5" y="1621.9375"/><text fill="#000000" font-family="sans-serif" font-size="14" lengthAdjust="spacingAndGlyphs" textLength="60" x="284.5" y="1641.9326">Mediator</text><rect fill="#DDDDDD" filter="url(#f1)" height="30.2969" style="stroke: #35566B; stroke-width: 1.5;" width="69" x="565" y="3"/><text fill="#000000" font-family="sans-serif" font-size="14" lengthAdjust="spacingAndGlyphs" textLength="55" x="572" y="22.9951">Room N</text><rect fill="#DDDDDD" filter="url(#f1)" height="30.2969" style="stroke: #35566B; stroke-width: 1.5;" width="69" x="565" y="1621.9375"/><text fill="#000000" font-family="sans-serif" font-size="14" lengthAdjust="spacingAndGlyphs" textLength="55" x="572" y="1641.9326">Room N</text><rect fill="#DDDDDD" filter="url(#f1)" height="30.2969" style="stroke: #35566B; stroke-width: 1.5;" width="88" x="648" y="3"/><text fill="#000000" font-family="sans-serif" font-size="14" lengthAdjust="spacingAndGlyphs" textLength="74" x="655" y="22.9951">First Room</text><rect fill="#DDDDDD" filter="url(#f1)" height="30.2969" style="stroke: #35566B; stroke-width: 1.5;" width="88" x="648" y="1621.9375"/><text fill="#000000" font-family="sans-serif" font-size="14" lengthAdjust="spacingAndGlyphs" textLength="74" x="655" y="1641.9326">First Room</text><rect fill="#65CFD9" filter="url(#f1)" height="1487.375" style="stroke: #35566B; stroke-width: 1.0;" width="10" x="311.5" y="112.4297"/><rect fill="#65CFD9" filter="url(#f1)" height="618.6563" style="stroke: #35566B; stroke-width: 1.0;" width="10" x="596.5" y="268.0938"/><rect fill="#65CFD9" filter="url(#f1)" height="281.1953" style="stroke: #35566B; stroke-width: 1.0;" width="10" x="596.5" y="1318.6094"/><rect fill="#65CFD9" filter="url(#f1)" height="315.3281" style="stroke: #35566B; stroke-width: 1.0;" width="10" x="689" y="945.0156"/><rect fill="#EEEEEE" filter="url(#f1)" height="3" style="stroke: #EEEEEE; stroke-width: 1.0;" width="742" x="3" y="68.8633"/><line style="stroke: #000000; stroke-width: 1.0;" x1="3" x2="745" y1="68.8633" y2="68.8633"/><line style="stroke: #000000; stroke-width: 1.0;" x1="3" x2="745" y1="71.8633" y2="71.8633"/><rect fill="#EEEEEE" filter="url(#f1)" height="23.1328" style="stroke: #000000; stroke-width: 2.0;" width="132" x="308" y="58.2969"/><text fill="#000000" font-family="sans-serif" font-size="13" font-weight="bold" lengthAdjust="spacingAndGlyphs" textLength="113" x="314" y="74.3638">Client connects</text><polygon fill="#0FA0CE" points="299.5,108.4297,309.5,112.4297,299.5,116.4297,303.5,112.4297" style="stroke: #0FA0CE; stroke-width: 1.0;"/><line style="stroke: #0FA0CE; stroke-width: 1.0;" x1="36.5" x2="305.5" y1="112.4297" y2="112.4297"/><text fill="#000000" font-family="sans-serif" font-size="13" lengthAdjust="spacingAndGlyphs" textLength="126" x="43.5" y="107.4966">connect WebSocket</text><line style="stroke: #0FA0CE; stroke-width: 1.0;" x1="309.5" x2="299.5" y1="141.5625" y2="137.5625"/><line style="stroke: #0FA0CE; stroke-width: 1.0;" x1="309.5" x2="299.5" y1="141.5625" y2="145.5625"/><line style="stroke: #0FA0CE; stroke-width: 1.0;" x1="36.5" x2="310.5" y1="141.5625" y2="141.5625"/><text fill="#000000" font-family="sans-serif" font-size="13" lengthAdjust="spacingAndGlyphs" textLength="68" x="43.5" y="136.6294">ready,{...}</text><line style="stroke: #0FA0CE; stroke-width: 1.0;" x1="36.5" x2="46.5" y1="170.6953" y2="166.6953"/><line style="stroke: #0FA0CE; stroke-width: 1.0;" x1="36.5" x2="46.5" y1="170.6953" y2="174.6953"/><line style="stroke: #0FA0CE; stroke-width: 1.0;" x1="36.5" x2="310.5" y1="170.6953" y2="170.6953"/><text fill="#000000" font-family="sans-serif" font-size="13" lengthAdjust="spacingAndGlyphs" textLength="245" x="53.5" y="165.7622">player,&lt;playerId&gt;,{type: "joinpart",...}</text><polygon fill="#FFFFFF" filter="url(#f1)" points="218,183.8281,218,208.8281,410,208.8281,410,193.8281,400,183.8281,218,183.8281" style="stroke: #A80036; stroke-width: 1.0;"/><line style="stroke: #A80036; stroke-width: 1.0;" x1="400" x2="400" y1="183.8281" y2="193.8281"/><line style="stroke: #A80036; stroke-width: 1.0;" x1="410" x2="400" y1="193.8281" y2="193.8281"/><text fill="#EA6F56" font-family="sans-serif" font-size="13" lengthAdjust="spacingAndGlyphs" textLength="171" x="224" y="200.895">Mediator finds target room</text><line style="stroke: #0FA0CE; stroke-width: 1.0;" x1="36.5" x2="46.5" y1="238.9609" y2="234.9609"/><line style="stroke: #0FA0CE; stroke-width: 1.0;" x1="36.5" x2="46.5" y1="238.9609" y2="242.9609"/><line style="stroke: #0FA0CE; stroke-width: 1.0;" x1="36.5" x2="310.5" y1="238.9609" y2="238.9609"/><text fill="#000000" font-family="sans-serif" font-size="13" lengthAdjust="spacingAndGlyphs" textLength="245" x="53.5" y="234.0278">player,&lt;playerId&gt;,{type: "joinpart",...}</text><line style="stroke: #0FA0CE; stroke-width: 1.0;" x1="594.5" x2="584.5" y1="268.0938" y2="264.0938"/><line style="stroke: #0FA0CE; stroke-width: 1.0;" x1="594.5" x2="584.5" y1="268.0938" y2="272.0938"/><line style="stroke: #0FA0CE; stroke-width: 1.0;" x1="321.5" x2="595.5" y1="268.0938" y2="268.0938"/><text fill="#000000" font-family="sans-serif" font-size="13" lengthAdjust="spacingAndGlyphs" textLength="126" x="328.5" y="263.1606">connect WebSocket</text><line style="stroke: #0FA0CE; stroke-width: 1.0;" x1="321.5" x2="331.5" y1="317.3594" y2="313.3594"/><line style="stroke: #0FA0CE; stroke-width: 1.0;" x1="321.5" x2="331.5" y1="317.3594" y2="321.3594"/><line style="stroke: #0FA0CE; stroke-width: 1.0;" x1="321.5" x2="595.5" y1="317.3594" y2="317.3594"/><text fill="#000000" font-family="sans-serif" font-size="13" lengthAdjust="spacingAndGlyphs" textLength="54" x="338.5" y="312.4263">ack,{...}</text><polygon fill="#FFFFFF" filter="url(#f1)" points="50,281.2266,50,336.2266,302,336.2266,302,291.2266,292,281.2266,50,281.2266" style="stroke: #A80036; stroke-width: 1.0;"/><line style="stroke: #A80036; stroke-width: 1.0;" x1="292" x2="292" y1="281.2266" y2="291.2266"/><line style="stroke: #A80036; stroke-width: 1.0;" x1="302" x2="292" y1="291.2266" y2="291.2266"/><text fill="#EA6F56" font-family="sans-serif" font-size="13" lengthAdjust="spacingAndGlyphs" textLength="219" x="56" y="298.2935">Mediator connects to saved room,</text><text fill="#EA6F56" font-family="sans-serif" font-size="13" lengthAdjust="spacingAndGlyphs" textLength="231" x="56" y="313.4263">if room can't be reached, Sick Room</text><text fill="#EA6F56" font-family="sans-serif" font-size="13" lengthAdjust="spacingAndGlyphs" textLength="50" x="56" y="328.5591">will fill in</text><line style="stroke: #0FA0CE; stroke-width: 1.0;" x1="36.5" x2="46.5" y1="371.625" y2="367.625"/><line style="stroke: #0FA0CE; stroke-width: 1.0;" x1="36.5" x2="46.5" y1="371.625" y2="375.625"/><line style="stroke: #0FA0CE; stroke-width: 1.0; stroke-dasharray: 2.0,2.0;" x1="36.5" x2="310.5" y1="371.625" y2="371.625"/><text fill="#000000" font-family="sans-serif" font-size="13" lengthAdjust="spacingAndGlyphs" textLength="54" x="53.5" y="366.6919">ack,{...}</text><polygon fill="#FFFFFF" filter="url(#f1)" points="326,350.625,326,375.625,584,375.625,584,360.625,574,350.625,326,350.625" style="stroke: #A80036; stroke-width: 1.0;"/><line style="stroke: #A80036; stroke-width: 1.0;" x1="574" x2="574" y1="350.625" y2="360.625"/><line style="stroke: #A80036; stroke-width: 1.0;" x1="584" x2="574" y1="360.625" y2="360.625"/><text fill="#EA6F56" font-family="sans-serif" font-size="13" lengthAdjust="spacingAndGlyphs" textLength="237" x="332" y="367.6919">Contains cached info about the room</text><rect fill="#EEEEEE" filter="url(#f1)" height="3" style="stroke: #EEEEEE; stroke-width: 1.0;" width="742" x="3" y="405.3242"/><line style="stroke: #000000; stroke-width: 1.0;" x1="3" x2="745" y1="405.3242" y2="405.3242"/><line style="stroke: #000000; stroke-width: 1.0;" x1="3" x2="745" y1="408.3242" y2="408.3242"/><rect fill="#EEEEEE" filter="url(#f1)" height="23.1328" style="stroke: #000000; stroke-width: 2.0;" width="236" x="256" y="394.7578"/><text fill="#000000" font-family="sans-serif" font-size="13" font-weight="bold" lengthAdjust="spacingAndGlyphs" textLength="217" x="262" y="410.8247">Asynchronous: Client to room</text><line style="stroke: #0FA0CE; stroke-width: 1.0;" x1="309.5" x2="299.5" y1="448.8906" y2="444.8906"/><line style="stroke: #0FA0CE; stroke-width: 1.0;" x1="309.5" x2="299.5" y1="448.8906" y2="452.8906"/><line style="stroke: #0FA0CE; stroke-width: 1.0;" x1="36.5" x2="310.5" y1="448.8906" y2="448.8906"/><text fill="#000000" font-family="sans-serif" font-size="13" lengthAdjust="spacingAndGlyphs" textLength="137" x="43.5" y="443.9575">room,&lt;roomId&gt;,{...}</text><line style="stroke: #0FA0CE; stroke-width: 1.0;" x1="594.5" x2="584.5" y1="483.0234" y2="479.0234"/><line style="stroke: #0FA0CE; stroke-width: 1.0;" x1="594.5" x2="584.5" y1="483.0234" y2="487.0234"/><line style="stroke: #0FA0CE; stroke-width: 1.0;" x1="321.5" x2="595.5" y1="483.0234" y2="483.0234"/><text fill="#000000" font-family="sans-serif" font-size="13" lengthAdjust="spacingAndGlyphs" textLength="137" x="328.5" y="478.0903">room,&lt;roomId&gt;,{...}</text><polygon fill="#FFFFFF" filter="url(#f1)" points="49,462.0234,49,487.0234,302,487.0234,302,472.0234,292,462.0234,49,462.0234" style="stroke: #A80036; stroke-width: 1.0;"/><line style="stroke: #A80036; stroke-width: 1.0;" x1="292" x2="292" y1="462.0234" y2="472.0234"/><line style="stroke: #A80036; stroke-width: 1.0;" x1="302" x2="292" y1="472.0234" y2="472.0234"/><text fill="#EA6F56" font-family="sans-serif" font-size="13" lengthAdjust="spacingAndGlyphs" textLength="232" x="55" y="479.0903">Mediator forwards message to room</text><rect fill="#EEEEEE" filter="url(#f1)" height="3" style="stroke: #EEEEEE; stroke-width: 1.0;" width="742" x="3" y="516.7227"/><line style="stroke: #000000; stroke-width: 1.0;" x1="3" x2="745" y1="516.7227" y2="516.7227"/><line style="stroke: #000000; stroke-width: 1.0;" x1="3" x2="745" y1="519.7227" y2="519.7227"/><rect fill="#EEEEEE" filter="url(#f1)" height="23.1328" style="stroke: #000000; stroke-width: 2.0;" width="240" x="254" y="506.1563"/><text fill="#000000" font-family="sans-serif" font-size="13" font-weight="bold" lengthAdjust="spacingAndGlyphs" textLength="221" x="260" y="522.2231">Asynchronous: Room to Client</text><polygon fill="#FFFFFF" filter="url(#f1)" points="188,544.2891,188,599.2891,441,599.2891,441,554.2891,431,544.2891,188,544.2891" style="stroke: #A80036; stroke-width: 1.0;"/><line style="stroke: #A80036; stroke-width: 1.0;" x1="431" x2="431" y1="544.2891" y2="554.2891"/><line style="stroke: #A80036; stroke-width: 1.0;" x1="441" x2="431" y1="554.2891" y2="554.2891"/><text fill="#EA6F56" font-family="sans-serif" font-size="13" lengthAdjust="spacingAndGlyphs" textLength="232" x="194" y="561.356">Mediator receives events from room</text><text fill="#EA6F56" font-family="sans-serif" font-size="13" lengthAdjust="spacingAndGlyphs" textLength="232" x="194" y="576.4888">and forwards those that apply to the</text><text fill="#EA6F56" font-family="sans-serif" font-size="13" lengthAdjust="spacingAndGlyphs" textLength="131" x="194" y="591.6216">player (playerId or *)</text><line style="stroke: #0FA0CE; stroke-width: 1.0;" x1="321.5" x2="331.5" y1="629.6875" y2="625.6875"/><line style="stroke: #0FA0CE; stroke-width: 1.0;" x1="321.5" x2="331.5" y1="629.6875" y2="633.6875"/><line style="stroke: #0FA0CE; stroke-width: 1.0;" x1="321.5" x2="595.5" y1="629.6875" y2="629.6875"/><text fill="#000000" font-family="sans-serif" font-size="13" lengthAdjust="spacingAndGlyphs" textLength="164" x="338.5" y="624.7544">player,*,{type: "chat", ...}</text><line style="stroke: #0FA0CE; stroke-width: 1.0;" x1="36.5" x2="46.5" y1="658.8203" y2="654.8203"/><line style="stroke: #0FA0CE; stroke-width: 1.0;" x1="36.5" x2="46.5" y1="658.8203" y2="662.8203"/><line style="stroke: #0FA0CE; stroke-width: 1.0;" x1="36.5" x2="310.5" y1="658.8203" y2="658.8203"/><text fill="#000000" font-family="sans-serif" font-size="13" lengthAdjust="spacingAndGlyphs" textLength="82" x="53.5" y="653.8872">player,*,{...}</text><line style="stroke: #0FA0CE; stroke-width: 1.0;" x1="321.5" x2="331.5" y1="687.9531" y2="683.9531"/><line style="stroke: #0FA0CE; stroke-width: 1.0;" x1="321.5" x2="331.5" y1="687.9531" y2="691.9531"/><line style="stroke: #0FA0CE; stroke-width: 1.0;" x1="321.5" x2="595.5" y1="687.9531" y2="687.9531"/><text fill="#000000" font-family="sans-serif" font-size="13" lengthAdjust="spacingAndGlyphs" textLength="237" x="338.5" y="683.02">player,&lt;playerId&gt;,{type: "event", ...}</text><line style="stroke: #0FA0CE; stroke-width: 1.0;" x1="36.5" x2="46.5" y1="717.0859" y2="713.0859"/><line style="stroke: #0FA0CE; stroke-width: 1.0;" x1="36.5" x2="46.5" y1="717.0859" y2="721.0859"/><line style="stroke: #0FA0CE; stroke-width: 1.0;" x1="36.5" x2="310.5" y1="717.0859" y2="717.0859"/><text fill="#000000" font-family="sans-serif" font-size="13" lengthAdjust="spacingAndGlyphs" textLength="147" x="53.5" y="712.1528">player,&lt;playerId&gt;,{...}</text><rect fill="#EEEEEE" filter="url(#f1)" height="3" style="stroke: #EEEEEE; stroke-width: 1.0;" width="742" x="3" y="745.7852"/><line style="stroke: #000000; stroke-width: 1.0;" x1="3" x2="745" y1="745.7852" y2="745.7852"/><line style="stroke: #000000; stroke-width: 1.0;" x1="3" x2="745" y1="748.7852" y2="748.7852"/><rect fill="#EEEEEE" filter="url(#f1)" height="23.1328" style="stroke: #000000; stroke-width: 2.0;" width="160" x="294" y="735.2188"/><text fill="#000000" font-family="sans-serif" font-size="13" font-weight="bold" lengthAdjust="spacingAndGlyphs" textLength="141" x="300" y="751.2856">Asynchronous: SOS</text><line style="stroke: #0FA0CE; stroke-width: 1.0;" x1="309.5" x2="299.5" y1="789.3516" y2="785.3516"/><line style="stroke: #0FA0CE; stroke-width: 1.0;" x1="309.5" x2="299.5" y1="789.3516" y2="793.3516"/><line style="stroke: #0FA0CE; stroke-width: 1.0;" x1="36.5" x2="310.5" y1="789.3516" y2="789.3516"/><text fill="#000000" font-family="sans-serif" font-size="13" lengthAdjust="spacingAndGlyphs" textLength="65" x="43.5" y="784.4185">sos,*,{...}</text><polygon fill="#FFFFFF" filter="url(#f1)" points="174,802.4844,174,827.4844,455,827.4844,455,812.4844,445,802.4844,174,802.4844" style="stroke: #A80036; stroke-width: 1.0;"/><line style="stroke: #A80036; stroke-width: 1.0;" x1="445" x2="445" y1="802.4844" y2="812.4844"/><line style="stroke: #A80036; stroke-width: 1.0;" x1="455" x2="445" y1="812.4844" y2="812.4844"/><text fill="#EA6F56" font-family="sans-serif" font-size="13" lengthAdjust="spacingAndGlyphs" textLength="260" x="180" y="819.5513">Mediator moves the player to First Room</text><line style="stroke: #0FA0CE; stroke-width: 1.0;" x1="594.5" x2="584.5" y1="857.6172" y2="853.6172"/><line style="stroke: #0FA0CE; stroke-width: 1.0;" x1="594.5" x2="584.5" y1="857.6172" y2="861.6172"/><line style="stroke: #0FA0CE; stroke-width: 1.0;" x1="321.5" x2="595.5" y1="857.6172" y2="857.6172"/><text fill="#000000" font-family="sans-serif" font-size="13" lengthAdjust="spacingAndGlyphs" textLength="194" x="328.5" y="852.6841">roomGoodbye,&lt;roomId&gt;,{...}</text><line style="stroke: #0FA0CE; stroke-width: 1.0;" x1="321.5" x2="331.5" y1="886.75" y2="882.75"/><line style="stroke: #0FA0CE; stroke-width: 1.0;" x1="321.5" x2="331.5" y1="886.75" y2="890.75"/><line style="stroke: #0FA0CE; stroke-width: 1.0;" x1="321.5" x2="600.5" y1="886.75" y2="886.75"/><text fill="#000000" font-family="sans-serif" font-size="13" lengthAdjust="spacingAndGlyphs" textLength="108" x="338.5" y="881.8169">close WebSocket</text><line style="stroke: #0FA0CE; stroke-width: 1.0;" x1="36.5" x2="46.5" y1="915.8828" y2="911.8828"/><line style="stroke: #0FA0CE; stroke-width: 1.0;" x1="36.5" x2="46.5" y1="915.8828" y2="919.8828"/><line style="stroke: #0FA0CE; stroke-width: 1.0;" x1="36.5" x2="310.5" y1="915.8828" y2="915.8828"/><text fill="#000000" font-family="sans-serif" font-size="13" lengthAdjust="spacingAndGlyphs" textLength="54" x="53.5" y="910.9497">ack,{...}</text><line style="stroke: #0FA0CE; stroke-width: 1.0;" x1="687" x2="677" y1="945.0156" y2="941.0156"/><line style="stroke: #0FA0CE; stroke-width: 1.0;" x1="687" x2="677" y1="945.0156" y2="949.0156"/><line style="stroke: #0FA0CE; stroke-width: 1.0;" x1="321.5" x2="688" y1="945.0156" y2="945.0156"/><text fill="#000000" font-family="sans-serif" font-size="13" lengthAdjust="spacingAndGlyphs" textLength="169" x="328.5" y="940.0825">roomHello,&lt;roomId&gt;,{...}</text><line style="stroke: #0FA0CE; stroke-width: 1.0;" x1="321.5" x2="331.5" y1="974.1484" y2="970.1484"/><line style="stroke: #0FA0CE; stroke-width: 1.0;" x1="321.5" x2="331.5" y1="974.1484" y2="978.1484"/><line style="stroke: #0FA0CE; stroke-width: 1.0;" x1="321.5" x2="688" y1="974.1484" y2="974.1484"/><text fill="#000000" font-family="sans-serif" font-size="13" lengthAdjust="spacingAndGlyphs" textLength="251" x="338.5" y="969.2153">player,&lt;playerId&gt;,{type: "location", ...}</text><line style="stroke: #0FA0CE; stroke-width: 1.0;" x1="36.5" x2="46.5" y1="1003.2813" y2="999.2813"/><line style="stroke: #0FA0CE; stroke-width: 1.0;" x1="36.5" x2="46.5" y1="1003.2813" y2="1007.2813"/><line style="stroke: #0FA0CE; stroke-width: 1.0;" x1="36.5" x2="310.5" y1="1003.2813" y2="1003.2813"/><text fill="#000000" font-family="sans-serif" font-size="13" lengthAdjust="spacingAndGlyphs" textLength="251" x="53.5" y="998.3481">player,&lt;playerId&gt;,{type: "location", ...}</text><rect fill="#EEEEEE" filter="url(#f1)" height="3" style="stroke: #EEEEEE; stroke-width: 1.0;" width="742" x="3" y="1031.9805"/><line style="stroke: #000000; stroke-width: 1.0;" x1="3" x2="745" y1="1031.9805" y2="1031.9805"/><line style="stroke: #000000; stroke-width: 1.0;" x1="3" x2="745" y1="1034.9805" y2="1034.9805"/><rect fill="#EEEEEE" filter="url(#f1)" height="23.1328" style="stroke: #000000; stroke-width: 2.0;" width="230" x="259" y="1021.4141"/><text fill="#000000" font-family="sans-serif" font-size="13" font-weight="bold" lengthAdjust="spacingAndGlyphs" textLength="211" x="265" y="1037.481">Asynchronons: Switch rooms</text><line style="stroke: #0FA0CE; stroke-width: 1.0;" x1="309.5" x2="299.5" y1="1075.5469" y2="1071.5469"/><line style="stroke: #0FA0CE; stroke-width: 1.0;" x1="309.5" x2="299.5" y1="1075.5469" y2="1079.5469"/><line style="stroke: #0FA0CE; stroke-width: 1.0;" x1="36.5" x2="310.5" y1="1075.5469" y2="1075.5469"/><text fill="#000000" font-family="sans-serif" font-size="13" lengthAdjust="spacingAndGlyphs" textLength="246" x="43.5" y="1070.6138">room,&lt;roomId&gt;,{content: "/go N", ...}</text><line style="stroke: #0FA0CE; stroke-width: 1.0;" x1="687" x2="677" y1="1104.6797" y2="1100.6797"/><line style="stroke: #0FA0CE; stroke-width: 1.0;" x1="687" x2="677" y1="1104.6797" y2="1108.6797"/><line style="stroke: #0FA0CE; stroke-width: 1.0;" x1="321.5" x2="688" y1="1104.6797" y2="1104.6797"/><text fill="#000000" font-family="sans-serif" font-size="13" lengthAdjust="spacingAndGlyphs" textLength="246" x="328.5" y="1099.7466">room,&lt;roomId&gt;,{content: "/go N", ...}</text><line style="stroke: #0FA0CE; stroke-width: 1.0;" x1="321.5" x2="331.5" y1="1133.8125" y2="1129.8125"/><line style="stroke: #0FA0CE; stroke-width: 1.0;" x1="321.5" x2="331.5" y1="1133.8125" y2="1137.8125"/><line style="stroke: #0FA0CE; stroke-width: 1.0;" x1="321.5" x2="688" y1="1133.8125" y2="1133.8125"/><text fill="#000000" font-family="sans-serif" font-size="13" lengthAdjust="spacingAndGlyphs" textLength="282" x="338.5" y="1128.8794">playerLocation,&lt;playerId&gt;,{ type: "exit", ...}</text><line style="stroke: #0FA0CE; stroke-width: 1.0;" x1="36.5" x2="46.5" y1="1162.9453" y2="1158.9453"/><line style="stroke: #0FA0CE; stroke-width: 1.0;" x1="36.5" x2="46.5" y1="1162.9453" y2="1166.9453"/><line style="stroke: #0FA0CE; stroke-width: 1.0;" x1="36.5" x2="310.5" y1="1162.9453" y2="1162.9453"/><text fill="#000000" font-family="sans-serif" font-size="13" lengthAdjust="spacingAndGlyphs" textLength="245" x="53.5" y="1158.0122">player,&lt;playerId&gt;,{type: "joinpart",...}</text><polygon fill="#FFFFFF" filter="url(#f1)" points="131,1176.0781,131,1201.0781,497,1201.0781,497,1186.0781,487,1176.0781,131,1176.0781" style="stroke: #A80036; stroke-width: 1.0;"/><line style="stroke: #A80036; stroke-width: 1.0;" x1="487" x2="487" y1="1176.0781" y2="1186.0781"/><line style="stroke: #A80036; stroke-width: 1.0;" x1="497" x2="487" y1="1186.0781" y2="1186.0781"/><text fill="#EA6F56" font-family="sans-serif" font-size="13" lengthAdjust="spacingAndGlyphs" textLength="345" x="137" y="1193.145">Mediator moves the player to whatever Room is North</text><line style="stroke: #0FA0CE; stroke-width: 1.0;" x1="36.5" x2="46.5" y1="1231.2109" y2="1227.2109"/><line style="stroke: #0FA0CE; stroke-width: 1.0;" x1="36.5" x2="46.5" y1="1231.2109" y2="1235.2109"/><line style="stroke: #0FA0CE; stroke-width: 1.0;" x1="36.5" x2="310.5" y1="1231.2109" y2="1231.2109"/><text fill="#000000" font-family="sans-serif" font-size="13" lengthAdjust="spacingAndGlyphs" textLength="245" x="53.5" y="1226.2778">player,&lt;playerId&gt;,{type: "joinpart",...}</text><line style="stroke: #0FA0CE; stroke-width: 1.0;" x1="692" x2="682" y1="1260.3438" y2="1256.3438"/><line style="stroke: #0FA0CE; stroke-width: 1.0;" x1="692" x2="682" y1="1260.3438" y2="1264.3438"/><line style="stroke: #0FA0CE; stroke-width: 1.0;" x1="321.5" x2="693" y1="1260.3438" y2="1260.3438"/><text fill="#000000" font-family="sans-serif" font-size="13" lengthAdjust="spacingAndGlyphs" textLength="194" x="328.5" y="1255.4106">roomGoodbye,&lt;roomId&gt;,{...}</text><line style="stroke: #0FA0CE; stroke-width: 1.0;" x1="36.5" x2="46.5" y1="1289.4766" y2="1285.4766"/><line style="stroke: #0FA0CE; stroke-width: 1.0;" x1="36.5" x2="46.5" y1="1289.4766" y2="1293.4766"/><line style="stroke: #0FA0CE; stroke-width: 1.0;" x1="36.5" x2="310.5" y1="1289.4766" y2="1289.4766"/><text fill="#000000" font-family="sans-serif" font-size="13" lengthAdjust="spacingAndGlyphs" textLength="245" x="53.5" y="1284.5435">player,&lt;playerId&gt;,{type: "joinpart",...}</text><line style="stroke: #0FA0CE; stroke-width: 1.0;" x1="594.5" x2="584.5" y1="1318.6094" y2="1314.6094"/><line style="stroke: #0FA0CE; stroke-width: 1.0;" x1="594.5" x2="584.5" y1="1318.6094" y2="1322.6094"/><line style="stroke: #0FA0CE; stroke-width: 1.0;" x1="321.5" x2="595.5" y1="1318.6094" y2="1318.6094"/><text fill="#000000" font-family="sans-serif" font-size="13" lengthAdjust="spacingAndGlyphs" textLength="51" x="328.5" y="1313.6763">connect</text><line style="stroke: #0FA0CE; stroke-width: 1.0;" x1="36.5" x2="46.5" y1="1347.7422" y2="1343.7422"/><line style="stroke: #0FA0CE; stroke-width: 1.0;" x1="36.5" x2="46.5" y1="1347.7422" y2="1351.7422"/><line style="stroke: #0FA0CE; stroke-width: 1.0;" x1="36.5" x2="310.5" y1="1347.7422" y2="1347.7422"/><text fill="#000000" font-family="sans-serif" font-size="13" lengthAdjust="spacingAndGlyphs" textLength="245" x="53.5" y="1342.8091">player,&lt;playerId&gt;,{type: "joinpart",...}</text><line style="stroke: #0FA0CE; stroke-width: 1.0;" x1="36.5" x2="46.5" y1="1376.875" y2="1372.875"/><line style="stroke: #0FA0CE; stroke-width: 1.0;" x1="36.5" x2="46.5" y1="1376.875" y2="1380.875"/><line style="stroke: #0FA0CE; stroke-width: 1.0;" x1="36.5" x2="310.5" y1="1376.875" y2="1376.875"/><text fill="#000000" font-family="sans-serif" font-size="13" lengthAdjust="spacingAndGlyphs" textLength="54" x="53.5" y="1371.9419">ack,{...}</text><line style="stroke: #0FA0CE; stroke-width: 1.0;" x1="321.5" x2="331.5" y1="1406.0078" y2="1402.0078"/><line style="stroke: #0FA0CE; stroke-width: 1.0;" x1="321.5" x2="331.5" y1="1406.0078" y2="1410.0078"/><line style="stroke: #0FA0CE; stroke-width: 1.0;" x1="321.5" x2="595.5" y1="1406.0078" y2="1406.0078"/><text fill="#000000" font-family="sans-serif" font-size="13" lengthAdjust="spacingAndGlyphs" textLength="54" x="338.5" y="1401.0747">ack,{...}</text><line style="stroke: #0FA0CE; stroke-width: 1.0;" x1="594.5" x2="584.5" y1="1435.1406" y2="1431.1406"/><line style="stroke: #0FA0CE; stroke-width: 1.0;" x1="594.5" x2="584.5" y1="1435.1406" y2="1439.1406"/><line style="stroke: #0FA0CE; stroke-width: 1.0;" x1="321.5" x2="595.5" y1="1435.1406" y2="1435.1406"/><text fill="#000000" font-family="sans-serif" font-size="13" lengthAdjust="spacingAndGlyphs" textLength="169" x="328.5" y="1430.2075">roomHello,&lt;roomId&gt;,{...}</text><line style="stroke: #0FA0CE; stroke-width: 1.0;" x1="321.5" x2="331.5" y1="1464.2734" y2="1460.2734"/><line style="stroke: #0FA0CE; stroke-width: 1.0;" x1="321.5" x2="331.5" y1="1464.2734" y2="1468.2734"/><line style="stroke: #0FA0CE; stroke-width: 1.0;" x1="321.5" x2="595.5" y1="1464.2734" y2="1464.2734"/><text fill="#000000" font-family="sans-serif" font-size="13" lengthAdjust="spacingAndGlyphs" textLength="251" x="338.5" y="1459.3403">player,&lt;playerId&gt;,{type: "location", ...}</text><line style="stroke: #0FA0CE; stroke-width: 1.0;" x1="36.5" x2="46.5" y1="1493.4063" y2="1489.4063"/><line style="stroke: #0FA0CE; stroke-width: 1.0;" x1="36.5" x2="46.5" y1="1493.4063" y2="1497.4063"/><line style="stroke: #0FA0CE; stroke-width: 1.0;" x1="36.5" x2="310.5" y1="1493.4063" y2="1493.4063"/><text fill="#000000" font-family="sans-serif" font-size="13" lengthAdjust="spacingAndGlyphs" textLength="251" x="53.5" y="1488.4731">player,&lt;playerId&gt;,{type: "location", ...}</text><rect fill="#EEEEEE" filter="url(#f1)" height="3" style="stroke: #EEEEEE; stroke-width: 1.0;" width="742" x="3" y="1522.1055"/><line style="stroke: #000000; stroke-width: 1.0;" x1="3" x2="745" y1="1522.1055" y2="1522.1055"/><line style="stroke: #000000; stroke-width: 1.0;" x1="3" x2="745" y1="1525.1055" y2="1525.1055"/><rect fill="#EEEEEE" filter="url(#f1)" height="23.1328" style="stroke: #000000; stroke-width: 2.0;" width="197" x="275.5" y="1511.5391"/><text fill="#000000" font-family="sans-serif" font-size="13" font-weight="bold" lengthAdjust="spacingAndGlyphs" textLength="178" x="281.5" y="1527.606">Client closes connection</text><line style="stroke: #0FA0CE; stroke-width: 1.0;" x1="309.5" x2="299.5" y1="1565.6719" y2="1561.6719"/><line style="stroke: #0FA0CE; stroke-width: 1.0;" x1="309.5" x2="299.5" y1="1565.6719" y2="1569.6719"/><line style="stroke: #0FA0CE; stroke-width: 1.0;" x1="36.5" x2="310.5" y1="1565.6719" y2="1565.6719"/><text fill="#000000" font-family="sans-serif" font-size="13" lengthAdjust="spacingAndGlyphs" textLength="108" x="43.5" y="1560.7388">close WebSocket</text><line style="stroke: #0FA0CE; stroke-width: 1.0;" x1="599.5" x2="589.5" y1="1599.8047" y2="1595.8047"/><line style="stroke: #0FA0CE; stroke-width: 1.0;" x1="599.5" x2="589.5" y1="1599.8047" y2="1603.8047"/><line style="stroke: #0FA0CE; stroke-width: 1.0;" x1="316.5" x2="600.5" y1="1599.8047" y2="1599.8047"/><text fill="#000000" font-family="sans-serif" font-size="13" lengthAdjust="spacingAndGlyphs" textLength="108" x="323.5" y="1594.8716">close WebSocket</text><polygon fill="#FFFFFF" filter="url(#f1)" points="73,1578.8047,73,1603.8047,302,1603.8047,302,1588.8047,292,1578.8047,73,1578.8047" style="stroke: #A80036; stroke-width: 1.0;"/><line style="stroke: #A80036; stroke-width: 1.0;" x1="292" x2="292" y1="1578.8047" y2="1588.8047"/><line style="stroke: #A80036; stroke-width: 1.0;" x1="302" x2="292" y1="1588.8047" y2="1588.8047"/><text fill="#EA6F56" font-family="sans-serif" font-size="13" lengthAdjust="spacingAndGlyphs" textLength="208" x="79" y="1595.8716">Mediator disconnects from room</text></g></svg>